PathFileType	4	(X/Y/Z)	/Users/itak/Documents/Research/Walk-IL/dataset/trc/00145_00007.trc
DataRate	CameraRate	NumFrames	NumMarkers	Units	OrigDataRate	OrigDataStartFrame	OrigNumFrames
100.000000	100.000000	4	53	mm	100.000000	385	514
Frame#	Time	RPSI			LPSI			L3			STRN			T10			C7			CLAV			RBAK			LBAK			LSHO			LUPA			LAEL			LAOL			LWTS			LWPS			LFRA			LIFD			LHPS			LHTS			RSHO			RUPA			RAEL			RAOL			RWTS			RWPS			RFRA			RIFD			RHTS			RHPS			RBHD			LFHD			RFHD			LBHD			LHIP			RHIP			RASI			LASI			LKNE			LTHI			LANK			LTIP			LTOE			LMT1			LMT5			LHEE			RKNE			RTHI			RANK			RTIP			RTOE			RMT1			RMT5			RHEE			
		X1	Y1	Z1	X2	Y2	Z2	X3	Y3	Z3	X4	Y4	Z4	X5	Y5	Z5	X6	Y6	Z6	X7	Y7	Z7	X8	Y8	Z8	X9	Y9	Z9	X10	Y10	Z10	X11	Y11	Z11	X12	Y12	Z12	X13	Y13	Z13	X14	Y14	Z14	X15	Y15	Z15	X16	Y16	Z16	X17	Y17	Z17	X18	Y18	Z18	X19	Y19	Z19	X20	Y20	Z20	X21	Y21	Z21	X22	Y22	Z22	X23	Y23	Z23	X24	Y24	Z24	X25	Y25	Z25	X26	Y26	Z26	X27	Y27	Z27	X28	Y28	Z28	X29	Y29	Z29	X30	Y30	Z30	X31	Y31	Z31	X32	Y32	Z32	X33	Y33	Z33	X34	Y34	Z34	X35	Y35	Z35	X36	Y36	Z36	X37	Y37	Z37	X38	Y38	Z38	X39	Y39	Z39	X40	Y40	Z40	X41	Y41	Z41	X42	Y42	Z42	X43	Y43	Z43	X44	Y44	Z44	X45	Y45	Z45	X46	Y46	Z46	X47	Y47	Z47	X48	Y48	Z48	X49	Y49	Z49	X50	Y50	Z50	X51	Y51	Z51	X52	Y52	Z52	X53	Y53	Z53	

386	3.85	877.4843139648438	1106.7060546875	349.6393737792969	742.8399658203125	1107.659545898438	333.5664978027344	804.1075439453125	1141.138061523438	348.437255859375	835.5989379882812	1352.71435546875	144.0660858154297	787.3696899414062	1287.32177734375	394.04248046875	774.880126953125	1581.615966796875	373.639404296875	825.0310668945312	1484.748901367188	188.2559509277344	850.5009765625	1392.633666992188	432.2048645019531	672.7032470703125	1561.310791015625	352.6814575195312	628.1196899414062	1552.576904296875	251.6179962158203	559.37646484375	1419.09423828125	236.1503753662109	555.550537109375	1204.982421875	177.5389404296875	600.0523071289062	1180.368041992188	251.0301666259766	633.3956298828125	971.80712890625	42.90850448608398	595.5765380859375	929.8113403320312	111.8221588134766	562.0479736328125	1094.501831054688	139.3914031982422	662.4266357421875	785.67431640625	-6.572413921356201	605.8766479492188	861.9439086914062	69.48493957519531	629.96044921875	888.1497802734375	10.23570537567139	964.3746948242188	1564.848754882812	355.4810180664062	1022.823303222656	1491.91455078125	384.0690307617188	1042.305541992188	1197.660034179688	394.4220275878906	946.3458251953125	1196.36669921875	375.6453857421875	1062.550659179688	951.8694458007812	254.6666717529297	1075.6572265625	937.2368774414062	335.3488464355469	1062.922241210938	1124.57763671875	375.3112182617188	1053.269409179688	756.5590209960938	231.6355133056641	1074.5087890625	843.6240844726562	230.6451110839844	1086.916015625	836.7391357421875	302.6908569335938	871.4736938476562	1748.594482421875	354.67529296875	727.9405517578125	1835.850341796875	211.7247314453125	857.7232666015625	1850.045654296875	208.4498291015625	738.4027099609375	1737.197387695312	366.3414916992188	644.2714233398438	1023.644775390625	225.2446594238281	1012.350341796875	1021.137329101562	228.3992919921875	965.1354370117188	1096.720947265625	148.5728149414062	699.0773315429688	1091.408569335938	124.157585144043	693.3457641601562	513.0780029296875	215.8320465087891	661.987548828125	663.7493896484375	224.6284027099609	646.5966796875	76.77928161621094	511.4536743164062	633.6176147460938	309.7590637207031	393.8741149902344	785.1918334960938	30.09612464904785	328.4844360351562	782.0719604492188	49.39360809326172	411.5504455566406	670.1138305664062	37.16567993164062	395.5764770507812	681.2197875976562	110.1883010864258	593.2252807617188	987.69482421875	551.0189819335938	85.29244232177734	1013.328063964844	819.9362182617188	152.4209747314453	1000.987915039062	23.47609329223633	95.63193511962891	1007.725463867188	414.9991149902344	78.05335998535156	936.606689453125	57.28757858276367	-127.9250030517578	899.2756958007812	41.08330917358398	-69.74930572509766	1016.487365722656	39.71553802490234	-38.28456115722656	952.2831420898438	25.39910888671875	154.3867492675781	
387	3.86	882.1364135742188	1107.611206054688	342.8330993652344	747.332275390625	1108.306640625	328.0973510742188	808.8150024414062	1142.164428710938	342.4430236816406	837.8590698242188	1353.866333007812	137.7395782470703	792.4030151367188	1288.260498046875	388.061767578125	779.3703002929688	1582.462646484375	368.2183227539062	827.5658569335938	1485.802978515625	182.1866149902344	855.8641357421875	1393.627319335938	425.6690673828125	677.0458984375	1562.144287109375	348.3554992675781	631.4100341796875	1553.693725585938	247.5669860839844	562.5308227539062	1420.241455078125	232.9314727783203	557.905517578125	1205.81298828125	175.4757232666016	603.1891479492188	1181.825439453125	248.7345581054688	633.0396728515625	969.607177734375	44.12049102783203	595.2275390625	929.5079956054688	114.0101547241211	563.441162109375	1094.820678710938	138.8714294433594	660.8886108398438	782.0231323242188	-1.192537307739258	604.9566650390625	860.53515625	73.23595428466797	629.0967407226562	885.0707397460938	13.29224014282227	968.6179809570312	1566.012573242188	347.9806518554688	1027.572875976562	1493.186279296875	375.7791442871094	1048.217041015625	1198.927612304688	385.0980224609375	952.0689086914062	1197.286987304688	367.4033203125	1068.0986328125	954.4315795898438	243.0267028808594	1081.973999023438	939.0540771484375	323.4342651367188	1068.935668945312	1125.999755859375	365.2490844726562	1059.510131835938	759.3816528320312	218.0392150878906	1080.319213867188	846.5364379882812	217.7900848388672	1093.388061523438	838.9446411132812	289.6416931152344	875.2451782226562	1749.513793945312	349.0049743652344	731.1038818359375	1837.078125	206.87744140625	860.883544921875	1851.146484375	203.0093078613281	742.2288818359375	1738.219116210938	361.3036499023438	648.1318969726562	1024.347534179688	220.9394989013672	1016.057800292969	1022.428100585938	220.5091705322266	967.8063354492188	1098.009155273438	141.1176147460938	701.5198364257812	1092.158081054688	119.3199691772461	695.1397094726562	513.1015625	204.8469390869141	664.7202758789062	664.15576171875	215.9394226074219	647.7457885742188	81.42538452148438	509.3591003417969	635.8580932617188	313.4202575683594	387.2154846191406	784.8882446289062	29.93649673461914	328.1510620117188	782.2636108398438	50.65027618408203	410.1082153320312	670.6270751953125	37.24518585205078	395.3182373046875	682.8965454101562	117.9087677001953	589.4769897460938	989.5123291015625	550.8628540039062	81.52511596679688	1016.142517089844	820.4879150390625	146.0291748046875	1001.129150390625	23.47360801696777	95.42580413818359	1009.1689453125	414.6564636230469	75.11703491210938	935.8817138671875	55.79336166381836	-128.4778594970703	898.9793090820312	40.27983856201172	-69.8104248046875	1016.206176757812	39.48151779174805	-38.73927688598633	952.6103515625	25.47690200805664	154.3569946289062	
388	3.87	886.6577758789062	1108.396362304688	336.1387634277344	751.7356567382812	1108.85888671875	322.6626281738281	813.4279174804688	1143.081909179688	336.521240234375	840.1136474609375	1354.908935546875	131.4563751220703	797.4127197265625	1289.121948242188	382.1670532226562	783.83837890625	1583.269165039062	362.7700805664062	830.0084228515625	1486.712646484375	176.1865997314453	861.235595703125	1394.569458007812	419.1751708984375	681.3778076171875	1562.88330078125	344.0566101074219	634.6582641601562	1554.656860351562	243.5825042724609	565.6792602539062	1421.204711914062	229.9192352294922	560.1680908203125	1206.48828125	173.6273498535156	606.2583618164062	1183.121826171875	246.6687469482422	632.6146850585938	967.4642333984375	45.40763092041016	594.9522705078125	929.1533203125	116.2543411254883	564.7543334960938	1095.053955078125	138.5039215087891	659.4483642578125	778.5388793945312	4.197858333587646	604.001220703125	859.2102661132812	76.97602844238281	628.216796875	882.08056640625	16.41136360168457	972.8279418945312	1567.11083984375	340.4368591308594	1032.300415039062	1494.39453125	367.43701171875	1054.1650390625	1200.150634765625	375.7398376464844	957.8392333984375	1198.177734375	359.2382507324219	1073.551391601562	956.9998168945312	231.3109893798828	1088.285400390625	940.8591918945312	311.4136352539062	1074.96435546875	1127.38232421875	355.1316528320312	1065.642211914062	762.2506713867188	204.2989807128906	1086.016845703125	849.4835815429688	204.8128204345703	1099.823608398438	841.1649169921875	276.4452209472656	878.997314453125	1750.2939453125	343.3245849609375	734.240478515625	1838.211303710938	202.0581665039062	864.0184936523438	1852.147827148438	197.5800170898438	746.0369873046875	1739.113891601562	356.2774963378906	651.9625244140625	1025.005004882812	216.657958984375	1019.666870117188	1023.62060546875	212.8185882568359	970.489013671875	1099.184204101562	133.8248443603516	704.0629272460938	1092.865234375	114.5125579833984	696.6355590820312	513.1498413085938	193.6366271972656	667.1875610351562	664.5490112304688	207.152587890625	649.03125	86.22043609619141	507.0432739257812	638.0294189453125	317.1902160644531	380.1999816894531	784.5767822265625	29.78046798706055	327.8692626953125	782.4813842773438	51.98612976074219	408.5373840332031	671.1887817382812	37.38151168823242	395.0442810058594	684.5458984375	125.9373321533203	585.2521362304688	991.4766845703125	550.6325073242188	78.16553497314453	1018.986206054688	820.9690551757812	139.9574737548828	1001.223815917969	23.48320007324219	95.25975036621094	1010.740844726562	414.2730407714844	72.6075439453125	935.3057861328125	54.32357406616211	-129.0240478515625	898.7969970703125	39.49221038818359	-69.89669036865234	1016.003173828125	39.18955612182617	-39.11625671386719	952.839111328125	25.55477142333984	154.3279113769531	
389	3.88	891.0199584960938	1109.092651367188	329.5984497070312	756.0138549804688	1109.31005859375	317.2818908691406	817.9031372070312	1143.880249023438	330.6783142089844	842.3792114257812	1355.837890625	125.2093353271484	802.3531494140625	1289.890258789062	376.3679504394531	788.2684326171875	1584.0234375	357.3101196289062	832.3770751953125	1487.47216796875	170.2607574462891	866.5817260742188	1395.441040039062	412.729736328125	685.6795654296875	1563.518310546875	339.7646179199219	637.86328125	1555.441650390625	239.6552429199219	568.8141479492188	1421.963256835938	227.094482421875	562.3421630859375	1206.984375	172.0136413574219	609.2577514648438	1184.229614257812	244.8417205810547	632.1328735351562	965.3739013671875	46.74794769287109	594.7593994140625	928.73291015625	118.5362548828125	566.0008544921875	1095.175659179688	138.2920074462891	658.051513671875	775.236328125	9.489336967468262	603.0146484375	857.956787109375	80.66300964355469	627.3060302734375	879.1972045898438	19.53977203369141	976.98876953125	1568.130737304688	332.8845825195312	1036.984375	1495.527954101562	359.0802307128906	1060.133544921875	1201.3125	366.343994140625	963.650634765625	1199.019409179688	351.1266174316406	1078.9072265625	959.5541381835938	219.5323638916016	1094.585205078125	942.6419677734375	299.2999572753906	1080.994018554688	1128.71484375	344.9579467773438	1071.661376953125	765.137939453125	190.4611358642578	1091.595581054688	852.4368896484375	191.7415313720703	1106.218505859375	843.3870849609375	263.1312561035156	882.7246704101562	1750.923217773438	337.63330078125	737.3453369140625	1839.229370117188	197.2617340087891	867.1253662109375	1853.035522460938	192.1587982177734	749.8228149414062	1739.869140625	351.2647705078125	655.7097778320312	1025.607421875	212.3736724853516	1023.164794921875	1024.72216796875	205.3440093994141	973.1803588867188	1100.232543945312	126.7098388671875	706.705078125	1093.515747070312	109.7259750366211	697.8668212890625	513.2354125976562	182.2464752197266	669.415283203125	664.9188842773438	198.2853393554688	650.4680786132812	91.15467071533203	504.5021057128906	640.1206665039062	321.0353088378906	372.8360290527344	784.272216796875	29.62415885925293	327.6304626464844	782.712158203125	53.39269256591797	406.8106079101562	671.7744750976562	37.61157608032227	394.7315979003906	686.1490478515625	134.2136077880859	580.5479736328125	993.5908813476562	550.3416137695312	75.14336395263672	1021.867126464844	821.4082641601562	134.1613922119141	1001.287536621094	23.49460792541504	95.12790679931641	1012.444458007812	413.8640747070312	70.44551849365234	934.896240234375	52.87246322631836	-129.5682220458984	898.730712890625	38.7236213684082	-70.00856781005859	1015.893432617188	38.83823394775391	-39.42918014526367	952.9906616210938	25.63498306274414	154.2933044433594	
